<?xml version="1.0" standalone="no"?>
<!DOCTYPE svg PUBLIC "-//W3C//DTD SVG 20010904//EN"
 "http://www.w3.org/TR/2001/REC-SVG-20010904/DTD/svg10.dtd">
<svg version="1.0" xmlns="http://www.w3.org/2000/svg"
 width="1000.000000pt" height="667.000000pt" viewBox="0 0 1000.000000 667.000000"
 preserveAspectRatio="xMidYMid meet">
<metadata>
Created by potrace 1.13, written by Peter Selinger 2001-2015
</metadata>
<g transform="translate(0.000000,667.000000) scale(0.100000,-0.100000)"
fill="#000000" stroke="none">
<path d="M0 5294 l0 -1377 58 7 c31 4 104 11 162 16 58 5 112 11 120 14 8 3
103 12 210 21 107 8 276 22 375 30 99 9 243 17 320 19 77 2 154 7 172 11 27 6
40 2 75 -24 23 -17 54 -31 70 -31 50 0 323 102 468 175 36 18 121 50 190 70
69 20 134 46 146 56 31 29 81 41 98 23 32 -31 48 -206 25 -258 -13 -28 -64
-56 -101 -56 -14 0 -195 -34 -403 -75 -443 -88 -562 -100 -975 -97 -259 2
-973 29 -997 37 -18 6 -19 -1580 -1 -1591 6 -4 8 -3 5 3 -7 11 10 14 223 38
74 8 159 17 188 21 28 3 52 9 52 14 0 5 -8 7 -18 5 -10 -2 -25 1 -33 5 -15 10
-6 15 35 22 10 2 25 13 33 24 13 20 12 22 -3 20 -9 0 -19 4 -21 10 -4 13 8 14
267 43 231 26 270 29 500 41 107 5 223 12 258 15 l62 6 0 -43 c0 -70 17 -114
58 -148 30 -25 34 -32 22 -40 -21 -14 7 -12 100 4 73 13 108 7 94 -16 -3 -5
-11 -5 -19 2 -8 7 -35 7 -90 -1 -43 -6 -88 -8 -101 -5 -12 3 -24 2 -26 -3 -5
-14 -157 -16 -170 -3 -13 13 -94 16 -102 4 -2 -4 -62 -9 -133 -11 -70 -2 -146
-5 -168 -6 -22 -1 -87 -5 -145 -9 -144 -9 -769 -36 -830 -36 l-50 0 0 -1110 0
-1110 2338 2 c1285 1 2303 3 2262 5 -41 1 -284 7 -540 13 -516 11 -782 20
-792 26 -4 3 -98 4 -210 4 -112 0 -284 5 -383 10 -99 5 -247 12 -330 16 -82 3
-157 11 -165 16 -11 7 -10 8 5 3 11 -3 344 -8 740 -10 396 -2 797 -6 890 -9
94 -3 244 -8 335 -11 352 -12 621 -25 647 -31 16 -4 34 -12 42 -18 10 -8 267
-11 900 -12 510 -1 858 2 821 7 -55 7 -246 25 -820 79 -58 6 -133 10 -168 10
-68 0 -79 14 -31 36 25 12 240 0 479 -25 58 -7 224 -25 370 -41 146 -16 324
-34 395 -40 72 -6 180 -15 241 -20 60 -6 377 -10 704 -10 554 0 593 1 578 17
-9 9 -48 24 -85 34 -37 9 -57 18 -45 18 14 1 22 6 20 14 -11 31 -88 57 -292
96 -1049 202 -1467 261 -1861 261 -293 0 -582 -47 -731 -120 -75 -36 -94 -57
-109 -117 -16 -63 -33 -64 -115 -13 -183 113 -311 162 -520 196 -131 22 -604
29 -1000 15 -173 -6 -540 -16 -815 -23 -384 -9 -503 -15 -513 -25 -7 -7 -18
-13 -23 -13 -5 0 -9 -6 -9 -13 0 -23 -114 -133 -163 -156 -26 -13 -47 -26 -47
-30 0 -3 24 -14 53 -23 60 -20 17 -14 -59 8 -94 27 -94 32 -1 94 45 30 141 97
214 148 166 116 197 134 236 138 17 2 70 26 117 53 169 97 161 94 315 102 77
4 235 12 350 17 116 6 293 14 395 17 102 3 230 8 286 11 101 4 704 -29 923
-52 51 -6 135 -26 176 -43 98 -42 158 -76 167 -97 10 -22 115 -84 143 -84 7 0
37 22 67 48 70 61 109 85 176 107 39 12 52 21 48 32 -4 11 -1 13 15 8 14 -5
34 2 61 20 31 21 48 25 72 21 107 -21 192 -26 250 -15 73 13 163 43 185 62 9
8 41 17 71 21 30 4 91 15 135 26 67 16 136 28 168 30 4 0 7 4 7 9 0 6 -14 5
-35 0 -20 -6 -46 -7 -58 -3 -12 5 -25 7 -29 6 -83 -21 -240 -53 -244 -50 -2 3
3 22 11 42 9 20 13 41 10 47 -7 11 -9 11 137 44 110 25 146 26 133 4 -4 -5 1
-9 9 -9 27 0 17 -15 -11 -19 -16 -1 -62 -6 -103 -10 l-75 -8 96 -1 c53 0 117
-3 143 -7 31 -5 46 -4 46 4 0 6 10 11 23 12 12 0 16 3 10 6 -14 5 -18 49 -5
57 4 2 28 -8 53 -23 62 -39 181 -91 259 -113 l65 -18 -55 5 c-30 3 -68 8 -85
11 -16 3 -46 7 -65 9 -19 2 -54 6 -77 10 -36 6 -43 5 -43 -9 0 -9 7 -16 15
-16 8 0 15 -6 15 -13 0 -9 59 -19 213 -35 303 -32 447 -28 506 16 30 22 30 34
2 48 l-21 11 25 23 c32 30 56 103 49 149 -4 27 -2 41 10 50 9 7 16 24 16 36 0
29 -37 74 -47 59 -12 -17 -53 -28 -53 -14 0 6 10 15 23 20 17 8 12 9 -20 4
-38 -5 -47 -1 -97 36 -31 22 -56 42 -56 44 0 4 9 3 375 -70 284 -56 485 -104
610 -146 l40 -13 -3 -70 c-3 -64 -1 -74 25 -110 16 -22 32 -48 36 -59 4 -11
13 -16 22 -12 9 3 15 0 15 -8 0 -7 11 -23 25 -36 14 -13 31 -43 36 -66 8 -30
15 -41 25 -37 9 3 14 -2 14 -16 0 -12 6 -21 15 -21 9 0 18 -7 21 -15 4 -8 11
-15 16 -15 6 0 21 -11 33 -24 12 -13 32 -27 43 -31 12 -3 22 -9 22 -13 0 -7
-19 -159 -39 -314 -6 -42 -13 -89 -17 -103 l-6 -25 716 0 716 0 0 950 0 950
-25 0 c-14 0 -25 4 -25 9 0 4 12 7 28 5 27 -4 27 -4 2 5 -14 5 -56 9 -94 10
-63 1 -68 0 -50 -14 18 -13 16 -14 -21 -14 -22 0 -34 3 -28 6 7 2 13 9 13 14
0 14 -33 11 -57 -6 -20 -14 -66 -15 -350 -10 -418 7 -564 13 -579 26 -7 6 -20
31 -28 56 -18 51 -21 76 -7 54 7 -10 62 -16 242 -23 128 -5 235 -11 238 -14 2
-2 -99 -2 -225 0 -190 4 -210 3 -119 -5 61 -5 207 -13 325 -17 206 -9 209 -9
76 -10 -77 -1 -137 -4 -135 -6 4 -4 132 -9 586 -22 l233 -7 0 251 0 252 -69 0
c-39 0 -72 3 -75 8 -2 4 29 6 70 4 l74 -4 0 290 0 290 -62 4 c-35 2 -189 5
-343 6 -154 1 -363 5 -465 9 -319 11 -513 10 -518 -5 -5 -17 -22 -4 -22 18 0
25 35 43 72 38 l30 -5 -4 59 -3 58 118 0 c64 0 117 -4 117 -8 0 -4 19 -9 43
-10 23 -1 94 -7 157 -12 63 -5 165 -12 225 -15 61 -3 119 -9 130 -12 11 -4 46
-6 78 -5 36 1 56 -2 52 -8 -3 -6 -1 -10 4 -10 6 0 11 5 11 11 0 8 5 7 16 -1
17 -15 22 -16 194 -25 69 -3 134 -7 145 -8 19 -2 20 5 23 199 l2 201 -407 7
c-225 4 -424 8 -443 10 -19 2 -151 5 -292 6 -142 1 -258 3 -258 5 0 2 4 14 9
27 9 23 11 23 102 17 52 -4 363 -10 692 -14 l597 -8 0 73 0 73 -67 -8 c-38 -4
-95 -8 -128 -9 -97 -5 -105 -9 -25 -16 l75 -6 -100 -4 c-95 -3 -97 -4 -40 -10
33 -4 -163 -7 -435 -8 -272 0 -486 3 -475 7 11 4 40 6 65 5 42 -4 43 -3 15 6
-16 6 -54 9 -84 8 -51 -2 -54 0 -56 23 -1 13 -7 53 -13 89 -6 36 -13 81 -16
101 l-4 35 285 2 c277 1 367 -4 190 -10 -48 -1 -87 -6 -87 -10 0 -4 -57 -9
-127 -11 -71 -1 26 -4 214 -5 215 -1 344 -6 348 -12 4 -6 -17 -10 -57 -10
-112 0 -453 -12 -457 -16 -2 -2 133 -4 300 -4 287 0 589 -8 598 -16 2 -2 -99
-4 -225 -5 -126 -1 -240 -4 -254 -9 -17 -5 -2 -8 49 -8 86 -1 110 -11 30 -13
-30 -1 -153 -5 -274 -8 l-220 -7 280 -3 c154 -1 271 -6 260 -10 -11 -5 -25 -6
-31 -4 -7 2 -15 0 -19 -6 -4 -8 38 -11 136 -11 78 0 140 -3 137 -6 -3 -3 -57
-5 -119 -6 -69 0 -106 -3 -93 -8 11 -4 79 -8 151 -9 72 0 135 -1 140 -2 4 -1
36 -1 70 0 l63 1 0 691 0 691 -167 -6 c-350 -13 -931 -26 -1278 -28 -321 -3
-366 -1 -417 15 -74 23 -81 37 -76 150 5 108 17 122 105 131 111 11 460 10
678 -3 280 -16 298 -17 370 -30 33 -6 104 -11 158 -11 54 0 96 -4 93 -9 -7
-10 66 -21 143 -21 31 0 92 -4 136 -10 44 -5 105 -12 135 -15 30 -3 70 -8 88
-11 l32 -6 0 716 0 716 -3917 0 c-2178 0 -3912 -4 -3904 -9 17 -11 41 -150 29
-173 -11 -22 -55 -23 -78 -3 -13 12 -23 13 -44 5 -40 -15 -51 -13 -88 17 l-33
27 29 -32 30 -32 -35 0 c-19 0 -29 4 -22 8 8 5 8 12 -3 26 -11 16 -18 17 -36
8 -13 -6 -17 -11 -10 -11 6 -1 12 -6 12 -12 0 -8 -5 -8 -15 1 -23 19 -18 28
18 35 17 4 38 12 45 18 7 5 15 7 18 4 4 -3 13 1 21 9 9 8 29 18 46 21 17 4 32
14 34 25 3 10 10 18 17 18 6 0 19 12 29 25 l18 25 -1081 0 -1080 0 0 -1376z
m1764 1261 c14 -30 31 -55 38 -55 10 0 10 -2 -1 -9 -18 -11 -7 -43 13 -35 8 3
17 1 21 -5 3 -6 -1 -11 -11 -11 -9 0 -40 -11 -68 -25 -45 -21 -76 -26 -279
-40 -291 -20 -687 -28 -707 -15 -12 8 -11 10 8 10 12 0 48 7 80 15 31 8 95 22
142 30 48 10 94 24 105 34 11 10 34 25 50 33 17 8 29 20 27 26 -1 7 6 12 16
12 10 0 22 4 28 9 17 15 129 40 249 55 66 9 134 17 150 19 17 2 49 5 72 6 41
1 42 0 67 -54z m7151 34 c292 -9 736 -40 810 -56 17 -4 33 -6 38 -5 4 1 7 -2
7 -7 0 -23 -500 -43 -1095 -45 l-490 -1 0 51 c1 29 7 59 14 68 15 18 -37 19
716 -5z m1053 -195 c-9 -8 -324 -31 -608 -44 -709 -31 -678 -31 -699 -6 -6 7
-6 17 -1 26 7 11 39 16 127 21 157 7 1188 11 1181 3z m-7744 -146 c8 -13 19
-52 25 -87 12 -72 -3 -125 -36 -134 -31 -8 -253 -8 -253 0 0 5 23 23 50 40 27
18 68 56 90 85 23 29 53 68 67 86 30 38 38 39 57 10z m-708 -143 c7 -19 14
-48 14 -65 0 -17 7 -47 15 -67 8 -19 15 -37 15 -39 0 -2 -19 -9 -42 -15 -46
-13 -857 -17 -896 -5 -11 4 -23 13 -26 21 -3 10 10 17 52 25 31 7 62 16 67 20
6 4 26 10 45 14 20 3 51 14 70 24 94 50 213 80 380 96 91 9 179 17 195 19 87
11 95 9 111 -28z m946 -284 c66 -55 88 -162 43 -206 -20 -21 -34 -25 -87 -25
-83 0 -461 -53 -616 -87 -63 -13 -118 -15 -370 -8 -163 4 -303 10 -311 15 -15
8 50 21 209 40 69 9 104 20 186 60 67 34 113 50 138 50 51 0 106 27 125 63 9
16 25 41 37 55 21 26 21 26 294 62 36 4 123 8 194 7 122 0 129 -1 158 -26z
m6453 -32 c113 5 360 0 450 -9 50 -6 119 -13 155 -15 36 -3 89 -9 119 -15 30
-5 97 -12 150 -16 53 -4 107 -8 121 -9 14 -1 36 -3 50 -5 44 -4 -35 -18 -135
-25 -49 -3 -117 -8 -150 -10 -198 -14 -617 -30 -780 -30 -200 0 -270 7 -301
30 -19 13 -18 14 1 20 37 12 49 22 65 51 20 35 53 44 135 36 33 -4 87 -5 120
-3z m-7339 -581 c7 -8 7 -31 1 -113 -2 -39 1 -74 11 -101 22 -60 11 -89 -43
-109 -41 -16 -97 -17 -682 -12 -351 3 -651 9 -668 14 l-30 10 35 6 c19 4 80
11 135 17 314 33 527 74 547 104 5 7 8 6 8 -3 0 -11 4 -10 14 4 7 10 22 20 32
21 11 1 28 5 39 8 11 2 22 5 25 5 3 1 -2 6 -10 11 -17 11 -99 29 -147 32 -18
1 -33 6 -33 10 0 4 -6 5 -14 2 -20 -8 -29 11 -12 25 8 7 25 14 37 17 89 18
126 24 159 24 20 0 40 3 44 7 10 10 28 12 161 21 135 10 381 9 391 0z m8070
-200 c4 -5 5 -10 3 -12 -3 -3 -220 -12 -484 -21 -263 -9 -482 -18 -486 -21
-12 -7 -273 -6 -291 1 -21 8 -24 30 -5 42 6 4 64 10 127 14 156 9 1126 6 1136
-3z m-7261 -222 c14 -10 20 -28 22 -70 1 -30 9 -69 18 -85 8 -17 15 -46 15
-65 0 -53 -37 -74 -173 -96 -61 -10 -184 -37 -272 -60 -331 -84 -323 -83 -695
-85 -482 -2 -1032 20 -1090 44 -22 8 -23 10 -4 10 11 1 24 5 30 9 16 15 96 39
164 51 36 7 92 18 125 26 64 15 69 15 245 39 104 14 315 34 538 52 54 4 97 2
126 -6 40 -11 48 -10 107 17 108 50 194 76 489 148 102 25 214 54 250 64 80
24 82 24 105 7z m6255 -170 c10 -43 11 -62 2 -81 -11 -23 -16 -25 -84 -24 -44
0 -103 9 -148 22 -67 20 -75 25 -75 47 0 22 5 26 40 30 32 4 44 12 66 45 26
38 30 40 91 45 76 6 88 -3 108 -84z m-1359 -47 c4 -30 10 -175 14 -324 3 -148
8 -306 11 -350 2 -44 0 -100 -6 -125 -23 -104 -28 -413 -10 -569 16 -139 17
-138 -204 -87 -60 14 -137 26 -171 26 -115 0 -649 -61 -825 -95 -187 -35 -543
-174 -650 -253 -56 -41 -160 -150 -160 -167 0 -18 11 -19 30 -2 8 6 6 2 -4
-10 -26 -32 -7 -29 29 5 17 15 99 62 184 105 106 54 141 76 115 71 -22 -4 -56
-15 -77 -26 -22 -11 -41 -18 -43 -15 -7 7 110 66 173 88 142 50 182 60 267 69
112 12 339 13 332 2 -3 -5 54 -16 127 -26 176 -24 176 -23 67 -25 -120 -2
-104 -13 61 -41 68 -11 144 -27 169 -35 25 -8 77 -21 115 -29 39 -9 117 -27
175 -40 147 -36 261 -51 270 -36 4 6 25 14 47 17 34 4 43 2 57 -18 9 -13 16
-31 16 -39 0 -9 13 -29 29 -44 16 -15 37 -46 46 -69 32 -74 86 -191 111 -239
14 -26 45 -93 69 -149 24 -55 62 -131 85 -169 25 -41 40 -78 38 -92 -3 -21 -9
-23 -73 -26 -38 -2 -168 4 -290 13 -121 9 -257 19 -302 22 -59 4 -83 3 -83 -5
0 -17 128 -150 151 -157 28 -9 35 -51 13 -76 -23 -25 -286 -192 -469 -297
-274 -157 -491 -279 -530 -300 -68 -36 -70 -38 -56 -56 8 -9 9 -16 3 -16 -5 0
-22 16 -37 35 -46 62 -219 136 -381 165 -95 16 -248 14 -286 -4 -17 -9 -42
-16 -55 -16 -15 0 -43 -18 -73 -46 -43 -40 -51 -53 -56 -95 -4 -27 -9 -49 -12
-49 -3 0 -15 9 -26 19 -26 24 -246 81 -335 87 -68 5 -85 10 -76 25 4 5 0 9 -9
9 -8 0 -22 3 -32 7 -12 5 -15 3 -9 -6 4 -8 -4 -6 -19 4 -14 10 -26 14 -26 10
0 -4 -8 -1 -17 6 -11 10 -14 10 -9 2 11 -19 -2 -17 -205 27 -212 45 -338 66
-461 76 -50 3 -88 11 -88 17 0 20 -308 -10 -499 -49 -194 -39 -321 -78 -422
-130 -27 -13 -49 -22 -49 -19 0 8 132 71 206 98 88 32 200 58 369 88 172 30
487 33 638 5 54 -10 101 -16 103 -13 3 2 -26 10 -63 17 -37 7 -87 18 -109 26
-53 17 -247 34 -388 34 -60 0 -107 3 -104 6 4 3 82 5 175 5 246 0 281 -6 1033
-176 234 -53 315 -66 280 -46 -39 23 -861 238 -1020 267 -135 24 -396 25 -510
1 -246 -52 -535 -172 -672 -279 -21 -16 -47 -50 -58 -75 -23 -53 -20 -68 6
-28 16 24 18 25 27 9 8 -14 4 -22 -15 -39 -24 -21 -24 -22 -8 -43 16 -19 20
-20 30 -7 10 12 9 15 -4 15 -9 0 -16 4 -16 10 0 5 3 9 8 9 23 -4 41 4 70 31
35 32 53 40 32 15 -17 -20 -12 -19 51 9 108 49 345 99 629 132 174 20 374 15
585 -16 119 -17 902 -169 959 -187 18 -5 18 -6 -4 -23 -17 -13 -24 -29 -26
-60 -3 -52 12 -59 111 -52 72 4 101 -6 77 -30 -12 -12 -203 6 -307 28 -284 62
-619 119 -786 133 -159 13 -840 -6 -1074 -30 -100 -11 -190 -44 -202 -76 -3
-7 -12 -13 -20 -13 -8 0 -11 5 -7 12 5 7 3 8 -6 3 -10 -6 -8 -12 10 -27 27
-22 18 -38 -11 -20 -19 12 -19 11 -8 -10 16 -31 -79 68 -111 115 -32 48 -55
55 -85 27 -13 -12 -28 -19 -34 -16 -5 4 -13 0 -18 -7 -9 -15 -69 -47 -88 -47
-7 0 -15 6 -18 14 -4 10 8 18 44 26 43 10 50 15 47 34 -3 22 -141 123 -229
167 -25 13 -46 28 -46 35 0 6 25 -4 56 -22 31 -19 60 -34 64 -34 15 0 112 -66
144 -98 29 -30 63 -35 63 -11 0 5 10 9 22 9 21 0 20 1 -8 31 -38 41 -174 146
-249 195 -33 21 -123 71 -200 111 -77 40 -137 73 -132 73 17 0 258 -127 337
-178 74 -48 193 -135 240 -175 8 -7 24 -19 34 -27 19 -15 19 -15 1 14 -24 37
-169 164 -260 228 -81 57 -305 173 -420 217 -104 39 -241 78 -306 87 l-51 7 5
39 c3 21 12 49 21 62 13 21 19 23 58 15 69 -13 108 -11 115 7 3 9 2 19 -3 23
-5 3 -19 21 -32 38 l-23 33 58 0 c72 0 89 9 74 38 -14 27 -82 38 -148 24 -27
-6 -136 -22 -243 -36 -188 -25 -294 -35 -560 -56 -69 -5 -201 -17 -295 -25
-188 -17 -493 -31 -485 -22 10 10 767 109 828 108 12 -1 22 3 22 7 0 10 54 29
104 37 22 3 42 8 45 10 8 9 -91 5 -259 -9 -214 -19 -599 -40 -606 -34 -2 3 46
11 108 18 62 7 158 18 213 25 l100 13 -83 1 c-46 0 -125 -4 -175 -10 -51 -6
-117 -9 -147 -7 -53 3 -50 4 55 21 177 29 484 74 555 82 36 3 89 13 119 21 61
17 254 44 354 49 61 3 214 17 227 20 3 1 33 5 67 10 l61 7 7 47 c10 77 25 111
46 111 31 0 34 -45 9 -148 -12 -52 -18 -97 -14 -102 13 -12 212 23 337 58 59
17 114 29 122 26 18 -7 20 -35 4 -51 -25 -25 2 -35 80 -29 42 4 211 18 376 31
597 49 811 59 981 46 210 -16 415 -69 546 -140 l67 -36 99 34 99 33 759 1
c417 0 874 -2 1014 -6 319 -9 309 6 -20 27 -129 9 -404 28 -610 42 -236 16
-406 23 -457 19 l-82 -6 -38 42 c-134 148 -142 152 -214 94 -24 -19 -48 -35
-52 -35 -4 0 -19 12 -32 26 l-24 26 -313 8 c-805 22 -838 22 -988 6 -187 -19
-306 -24 -747 -32 -329 -7 -364 -6 -387 10 -14 9 -26 22 -26 29 1 20 96 87
124 87 49 0 107 31 121 64 17 40 60 86 80 86 41 0 211 22 225 30 8 4 40 10 70
14 73 7 145 21 260 51 102 26 197 38 205 25 3 -4 -9 -13 -26 -19 -26 -9 -30
-13 -19 -26 19 -23 -6 -30 -265 -76 -233 -41 -357 -70 -363 -86 -5 -17 34 -17
131 2 43 8 88 15 100 14 21 0 21 -1 2 -9 -16 -7 -13 -9 17 -9 20 -1 40 4 44
11 5 8 1 9 -12 4 -13 -5 -16 -4 -9 3 6 6 57 20 115 31 58 12 134 27 170 35 36
8 85 17 110 20 25 4 74 15 110 25 163 47 352 70 650 78 l225 7 -83 19 c-56 14
-81 24 -78 32 3 7 0 14 -7 17 -7 2 21 7 61 10 41 4 77 5 82 2 5 -3 45 -9 88
-13 l80 -8 -45 57 c-24 32 -57 62 -71 67 -86 32 -132 44 -146 39 -10 -4 -15
-11 -12 -16 3 -5 -1 -12 -10 -15 -25 -9 -173 -7 -240 4 -106 17 -343 30 -369
20 -87 -33 -629 -90 -860 -90 -93 0 -126 4 -143 16 -22 15 -30 48 -14 58 4 2
186 7 405 10 312 4 413 9 474 22 43 9 96 16 118 15 50 -1 65 8 69 43 1 15 8
32 14 38 15 15 208 22 299 10 71 -8 72 -8 56 10 -15 17 -15 20 -3 28 8 6 21
10 27 10 33 0 264 -102 367 -162 27 -16 50 -27 52 -25 2 2 -23 23 -56 47 -42
31 -57 46 -48 52 10 6 5 15 -17 35 l-30 26 30 -7 c16 -4 52 -18 80 -31 27 -13
75 -33 105 -45 48 -20 75 -36 163 -100 19 -14 20 -14 7 10 -7 14 -18 32 -24
40 -7 8 -18 28 -24 43 l-12 29 32 -23 c18 -12 45 -34 60 -47 15 -14 30 -23 34
-20 6 7 -28 78 -57 120 -11 14 -19 32 -19 40 0 7 -20 38 -44 69 -71 90 -82
121 -29 79 38 -30 40 -17 4 32 -34 47 -38 58 -17 58 8 0 16 7 18 16 8 39 284
-226 424 -406 26 -33 51 -60 55 -60 7 0 57 60 73 88 4 7 2 19 -4 27 -10 12
-10 15 -1 15 8 0 7 6 -3 16 -9 8 -16 21 -16 27 0 7 -6 24 -14 39 -15 28 -16
45 -3 65 4 6 2 13 -5 15 -6 2 -11 23 -10 49 2 104 5 135 13 151 6 10 5 19 -1
23 -6 4 -6 15 1 32 5 15 8 32 5 40 -3 7 1 13 10 13 8 0 13 4 9 9 -3 5 4 13 16
16 14 5 18 10 10 14 -9 6 -7 12 5 22 12 9 15 10 10 2 -4 -7 -2 -13 3 -13 6 0
11 7 11 16 0 10 6 14 14 11 8 -3 16 2 19 14 3 11 11 17 19 14 15 -6 21 -35 7
-35 -4 0 -2 -11 5 -24 7 -14 12 -60 12 -110 -1 -47 2 -86 6 -86 4 0 5 -6 3
-12 -8 -21 -14 -249 -7 -246 163 85 370 178 482 218 128 45 156 52 245 56 285
12 511 27 605 39 58 8 159 19 225 25 184 17 186 17 201 70 15 50 26 138 26
218 0 29 4 54 7 57 15 9 1 179 -19 241 -6 19 -8 39 -4 46 4 6 9 44 10 82 1 39
5 85 8 101 24 117 27 148 40 380 5 96 28 216 40 212 6 -2 14 -28 17 -58z
m-3016 11 c-3 -5 0 -10 7 -10 8 0 13 -10 13 -26 -1 -15 5 -45 13 -68 22 -63
49 -287 51 -430 1 -71 4 -132 6 -136 2 -4 5 -99 6 -212 1 -163 4 -212 17 -238
8 -17 50 -59 93 -92 74 -57 178 -173 166 -185 -8 -7 -99 51 -215 136 -53 38
-177 111 -285 166 -106 54 -241 125 -302 158 -113 62 -191 92 -200 77 -7 -12
92 -71 296 -179 176 -92 246 -141 202 -141 -28 0 -131 45 -410 179 -128 61
-240 111 -250 111 -24 0 -143 90 -143 108 0 11 10 12 50 7 60 -8 69 4 46 60
-20 48 -20 52 4 65 16 8 41 1 132 -40 62 -28 117 -55 123 -60 13 -10 148 -60
152 -56 2 2 5 92 8 202 3 109 9 224 14 254 14 87 45 225 52 230 3 3 6 12 6 20
0 8 8 32 18 53 14 30 20 35 32 26 8 -7 12 -18 9 -24 -2 -7 2 -24 9 -39 12 -23
12 -26 -3 -26 -10 0 -13 -3 -6 -8 6 -4 13 -15 17 -24 5 -16 14 -19 42 -18 3 0
20 -13 38 -29 l32 -30 11 22 c7 12 18 22 26 22 18 0 98 47 98 57 0 4 -6 8 -12
8 -7 0 -4 6 7 12 19 11 19 11 0 19 -16 6 -16 8 -4 8 9 1 20 8 23 17 3 9 2 12
-5 9 -8 -5 -8 28 0 53 1 1 6 2 12 2 5 0 7 -4 4 -10z m3993 -246 c12 -2 22 -12
22 -21 0 -20 48 -122 65 -140 20 -19 70 -40 105 -42 25 -1 26 -18 3 -24 -10
-2 17 -4 60 -4 47 0 83 -5 90 -12 17 -17 22 -242 7 -271 l-12 -22 -317 4
c-358 3 -357 3 -380 77 -14 48 -15 237 -2 326 5 33 17 79 26 103 l17 43 147
-6 c80 -4 156 -8 169 -11z m-6795 -76 c9 -5 17 -20 17 -33 0 -33 -28 -39 -126
-26 -43 5 -114 13 -157 17 -62 5 -75 9 -67 20 15 16 50 24 158 33 91 8 145 4
175 -11z m822 -648 c4 -6 10 -8 15 -5 5 3 11 1 15 -5 4 -7 12 -7 26 0 15 9 19
7 20 -7 1 -10 1 -22 0 -27 -1 -5 5 -6 14 -2 10 3 14 2 9 -5 -3 -6 -17 -8 -30
-5 -17 5 -24 2 -24 -7 0 -10 -8 -13 -25 -9 -14 2 -22 8 -19 13 3 5 -5 8 -17 6
-13 -2 -25 -12 -29 -21 -3 -10 -10 -17 -15 -17 -6 1 -23 -3 -39 -9 -20 -7 -26
-14 -22 -25 4 -10 2 -14 -5 -9 -11 7 -59 -14 -59 -26 0 -4 15 -5 33 -2 30 4
31 3 12 -11 -19 -14 -16 -15 40 -13 33 2 74 11 90 20 17 9 38 16 47 16 9 0 20
5 23 10 4 7 12 7 25 0 10 -5 32 -10 47 -10 21 0 29 -5 30 -20 1 -10 9 -35 18
-54 30 -63 12 -79 -155 -145 -80 -32 -190 -78 -245 -103 -122 -56 -156 -63
-221 -43 -66 20 -104 19 -166 -5 -45 -17 -77 -20 -208 -20 -85 0 -227 4 -315
10 -88 5 -275 15 -415 21 -407 18 -399 17 -378 29 9 6 54 14 101 19 46 4 89
11 94 14 5 3 121 8 258 12 361 8 448 20 536 69 24 14 47 22 52 19 5 -3 13 1
18 8 6 9 9 10 9 2 0 -14 53 -8 125 15 28 8 51 14 53 14 1 -1 17 4 35 11 20 9
42 11 61 6 57 -16 95 67 54 118 -5 6 -11 22 -13 36 -6 30 29 79 50 71 8 -3 34
1 57 10 24 9 70 19 103 21 110 9 140 12 175 18 19 4 55 9 79 12 24 2 46 7 49
10 8 8 20 6 27 -5z m1050 -124 c50 -13 133 -34 185 -46 52 -12 167 -46 255
-76 87 -30 161 -54 162 -54 2 0 3 -9 3 -20 0 -15 -7 -20 -27 -20 l-28 -1 25
-14 c20 -11 21 -14 7 -15 -10 0 -15 -4 -12 -10 3 -5 -3 -10 -15 -10 -30 0
-216 41 -447 99 -111 28 -213 51 -225 51 -13 0 -51 12 -85 26 -45 19 -63 32
-63 46 0 15 8 18 43 18 56 0 76 13 42 28 -26 12 -34 37 -12 45 6 2 32 -2 57
-10 25 -7 86 -24 135 -37z m-270 -181 c39 -9 86 -13 106 -10 25 4 55 -1 101
-18 35 -14 172 -50 304 -82 131 -31 263 -67 293 -81 30 -13 81 -31 115 -40
120 -30 258 -77 279 -95 12 -11 15 -17 7 -14 -142 44 -255 74 -295 79 l-50 6
50 -25 c29 -15 40 -23 25 -21 -266 48 -777 159 -1015 220 -159 40 -171 61 -50
84 28 5 52 10 55 10 3 1 37 -5 75 -13z m-498 -270 c19 -19 39 -35 44 -35 5 0
8 -3 7 -7 -1 -5 6 -20 16 -35 10 -15 14 -33 10 -39 -4 -8 -3 -9 4 -5 16 10 15
1 -4 -35 -9 -18 -31 -37 -52 -46 -20 -8 -88 -48 -152 -87 -234 -147 -257 -158
-339 -167 -42 -5 -107 -13 -146 -19 -80 -11 -245 -13 -322 -4 -61 8 -64 16
-33 88 l19 46 80 0 c83 0 102 8 77 33 -8 8 -12 17 -9 21 4 3 0 6 -8 6 -35 2
71 43 127 50 51 6 71 15 107 44 50 41 127 78 277 131 58 21 137 50 175 66 39
16 74 29 79 29 4 0 24 -16 43 -35z m5668 -56 c69 -13 150 -62 195 -119 17 -21
49 -49 73 -63 23 -14 53 -36 66 -50 l23 -25 -29 -15 c-50 -26 -142 -36 -333
-37 -255 0 -237 -4 -194 33 21 19 27 36 36 102 6 44 17 104 24 133 14 49 16
52 47 52 19 0 60 -5 92 -11z m-954 -55 c11 -10 19 -30 19 -50 0 -18 9 -49 20
-69 11 -20 20 -42 20 -51 0 -24 -27 -27 -57 -6 -15 11 -43 23 -60 27 -40 8
-53 25 -20 25 15 0 31 10 41 25 17 25 16 26 -18 40 -20 8 -40 15 -46 15 -37 0
-151 33 -147 43 9 29 216 30 248 1z m1497 -399 c39 0 72 -1 72 -3 0 -1 -10 -7
-22 -12 -20 -9 -18 -10 14 -7 20 1 34 -1 32 -5 -3 -4 30 -8 73 -8 83 0 163 -4
573 -22 315 -14 309 -13 318 -22 6 -7 -391 -3 -798 9 -184 6 -411 24 -422 34
-4 3 -5 16 -2 29 6 20 10 21 48 14 22 -4 74 -7 114 -7z m-528 -241 c32 -14 61
-32 64 -39 2 -7 30 -30 60 -50 31 -20 56 -40 56 -44 0 -28 -308 -44 -344 -18
-26 19 -34 128 -12 162 16 24 22 26 67 21 28 -3 77 -17 109 -32z m-6515 -867
c4 -47 13 -75 26 -88 20 -20 26 -34 9 -24 -6 4 -57 -1 -113 -10 -113 -18 -896
-110 -1022 -121 -44 -3 -92 -7 -108 -9 -15 -1 -27 2 -27 7 0 8 -114 5 -315 -6
-33 -2 -69 -1 -80 4 -18 6 -17 8 10 22 17 9 56 22 88 29 31 8 57 19 57 25 0
14 45 27 230 63 85 17 209 42 274 56 66 13 234 41 375 60 141 20 283 43 316
51 33 8 105 21 160 28 116 14 108 20 120 -87z m5335 -149 c13 -5 27 -13 30
-17 3 -4 48 -28 100 -53 52 -25 117 -64 143 -88 l49 -43 -134 -28 c-154 -33
-439 -77 -516 -80 -50 -2 -55 0 -95 39 -32 33 -39 44 -29 54 20 20 14 36 -18
40 -32 5 -37 -1 -19 -19 11 -11 5 -33 -11 -33 -19 0 -19 35 1 66 11 19 19 41
16 48 -3 8 0 21 6 30 9 13 19 14 43 7 18 -5 37 -5 45 0 11 7 10 9 -6 10 -11 1
-26 2 -32 2 -20 -1 -15 15 7 22 11 3 20 11 20 17 0 5 6 8 14 5 8 -3 17 0 20 8
2 7 17 16 33 18 50 8 307 4 333 -5z m-1245 -133 c49 -14 116 -40 148 -57 l58
-31 -3 -71 -3 -71 -107 -37 c-145 -50 -342 -83 -400 -68 -159 42 -288 229
-193 280 36 19 52 -2 50 -67 -1 -32 3 -53 9 -53 16 1 56 36 56 50 0 7 8 9 19
5 13 -4 25 2 40 21 21 27 20 47 -2 38 -13 -5 -57 30 -57 45 0 5 21 14 48 21
43 12 45 13 22 21 -15 5 25 7 100 5 99 -3 144 -10 215 -31z m1605 -140 c14
-38 1 -81 -37 -120 -39 -41 -46 -42 -106 -16 -57 25 -157 45 -167 34 -24 -24
-12 -37 55 -59 l70 -23 -120 4 c-158 6 -205 10 -235 24 l-25 11 25 -5 c14 -3
36 -7 50 -10 14 -3 -10 7 -53 23 -43 16 -81 33 -85 37 -7 7 116 -2 149 -11 9
-2 24 5 34 16 19 21 16 24 -30 33 -11 2 3 7 30 11 88 13 278 46 340 60 86 20
94 19 105 -9z m-5656 -32 c4 -28 2 -49 -4 -53 -10 -6 -243 -41 -500 -75 -63
-8 -137 -14 -165 -13 -27 1 -99 -1 -160 -5 l-110 -6 60 14 c33 8 94 22 135 31
41 9 99 25 129 35 45 15 265 61 516 108 92 16 92 16 99 -36z m33 -87 c20 -23
20 -36 1 -36 -5 0 -6 5 -3 10 8 12 -8 12 -60 0 -22 -5 -166 -28 -320 -50 -154
-22 -309 -44 -345 -50 -133 -21 -277 -39 -350 -44 l-75 -6 60 15 c75 19 209
44 485 89 118 20 294 48 390 64 96 16 180 30 186 31 6 0 20 -10 31 -23z m4173
-53 c0 -5 -16 -18 -36 -31 -34 -22 -35 -24 -19 -41 15 -17 15 -19 0 -25 -25
-9 -225 -7 -225 2 0 27 122 98 146 84 12 -7 101 5 132 17 1 1 2 -2 2 -6z
m-4229 -285 c0 -13 2 -42 5 -65 8 -61 66 -47 -596 -143 -231 -33 -337 -45
-341 -38 -5 7 -28 9 -63 5 -31 -3 -56 -2 -56 2 0 4 27 16 60 26 34 10 64 24
68 30 12 21 48 34 133 49 135 24 273 57 279 65 3 5 82 22 175 39 339 62 335
61 336 30z m11 -170 c3 -24 4 -44 2 -46 -5 -7 -634 -105 -640 -100 -2 3 40 12
94 21 53 9 167 28 252 42 85 14 171 30 190 35 77 18 -10 8 -212 -25 -117 -19
-274 -43 -348 -54 -74 -11 -155 -23 -180 -27 -25 -4 -42 -4 -39 0 7 7 71 19
524 97 160 27 295 51 300 53 35 15 -94 0 -314 -34 -140 -23 -264 -39 -276 -37
-22 3 59 19 400 76 127 21 233 39 236 40 4 0 9 -18 11 -41z m4933 -23 c94 -14
265 -43 380 -66 514 -98 719 -140 724 -146 8 -8 -51 1 -239 37 -85 16 -225 41
-310 55 -179 30 -284 49 -425 75 -55 11 -138 24 -185 30 -47 6 -110 15 -140
21 -30 5 -88 12 -127 15 -40 4 -73 10 -73 13 0 11 217 -8 395 -34z"/>
<path d="M6910 2690 c0 -5 10 -12 23 -15 12 -3 72 -16 132 -31 125 -29 265
-43 265 -26 0 20 -100 44 -285 68 -131 17 -135 17 -135 4z"/>
<path d="M6107 2684 c-3 -3 -52 -6 -109 -5 -84 1 -117 -3 -178 -23 -47 -16
-66 -25 -50 -26 23 -1 23 -2 5 -10 -41 -16 55 -22 188 -12 83 7 171 8 237 2
58 -5 143 -12 189 -16 68 -6 83 -5 76 6 -6 10 -2 11 19 6 14 -3 26 -2 26 3 0
10 -122 41 -160 41 -11 0 -31 6 -43 14 -22 14 -189 31 -200 20z"/>
<path d="M7012 2545 c4 -4 38 -18 75 -31 40 -13 58 -23 44 -23 -13 -1 -22 -3
-19 -6 6 -6 177 -41 243 -49 42 -5 47 -5 30 6 -19 12 -19 12 5 18 23 6 20 9
-34 33 -32 15 -65 27 -73 27 -8 0 -12 4 -9 9 3 4 -31 9 -77 9 -45 1 -107 4
-137 8 -30 4 -52 3 -48 -1z"/>
<path d="M5920 2498 l-45 -21 35 -8 c19 -4 103 -8 185 -8 83 0 195 -5 250 -10
55 -5 101 -8 103 -6 9 8 -158 36 -311 50 -37 4 -65 11 -62 16 12 19 -109 9
-155 -13z"/>
<path d="M3950 2449 c-283 -31 -542 -82 -533 -105 2 -7 -4 -14 -14 -17 -12 -3
-9 -5 9 -6 42 -2 132 20 119 29 -7 4 14 10 46 13 32 4 117 13 188 22 167 19
587 30 685 17 78 -10 174 -2 135 11 -115 38 -445 57 -635 36z"/>
<path d="M6041 2321 c15 -10 135 -28 694 -106 143 -21 332 -50 420 -66 190
-34 337 -52 385 -47 34 3 34 3 13 16 -12 7 -82 21 -155 33 -73 11 -284 44
-468 74 -184 30 -407 64 -495 75 -187 25 -418 37 -394 21z"/>
<path d="M3590 995 c-74 -7 -146 -14 -159 -14 -53 -2 -9 -12 70 -15 58 -3 72
-2 44 3 l-40 8 36 2 c20 0 38 -2 42 -5 9 -9 191 -4 267 7 36 6 108 10 160 11
87 0 91 1 40 8 -82 12 -307 9 -460 -5z"/>
</g>
</svg>
